<svg width="36" height="36" viewBox="0 0 36 36" fill="none" xmlns="http://www.w3.org/2000/svg">
<mask id="path-1-inside-1_1_45" fill="white">
<path d="M0 16C0 7.16344 7.16344 0 16 0H20C28.8366 0 36 7.16344 36 16V20C36 28.8366 28.8366 36 20 36H16C7.16344 36 0 28.8366 0 20V16Z"/>
</mask>
<path d="M0 16C0 7.16344 7.16344 0 16 0H20C28.8366 0 36 7.16344 36 16V20C36 28.8366 28.8366 36 20 36H16C7.16344 36 0 28.8366 0 20V16Z" fill="#FCFDFD"/>
<path d="M16 0V1.5H20V0V-1.5H16V0ZM36 16H34.5V20H36H37.5V16H36ZM20 36V34.5H16V36V37.5H20V36ZM0 20H1.5V16H0H-1.5V20H0ZM16 36V34.5C7.99187 34.5 1.5 28.0081 1.5 20H0H-1.5C-1.5 29.665 6.33502 37.5 16 37.5V36ZM36 20H34.5C34.5 28.0081 28.0081 34.5 20 34.5V36V37.5C29.665 37.5 37.5 29.665 37.5 20H36ZM20 0V1.5C28.0081 1.5 34.5 7.99187 34.5 16H36H37.5C37.5 6.33502 29.665 -1.5 20 -1.5V0ZM16 0V-1.5C6.33502 -1.5 -1.5 6.33502 -1.5 16H0H1.5C1.5 7.99187 7.99187 1.5 16 1.5V0Z" fill="#49656E" fill-opacity="0.2" mask="url(#path-1-inside-1_1_45)"/>
<path fill-rule="evenodd" clip-rule="evenodd" d="M11 16C9.89543 16 9 16.8954 9 18C9 19.1046 9.89543 20 11 20C12.1046 20 13 19.1046 13 18C13 16.8954 12.1046 16 11 16ZM16 18C16 16.8954 16.8954 16 18 16C19.1046 16 20 16.8954 20 18C20 19.1046 19.1046 20 18 20C16.8954 20 16 19.1046 16 18ZM23 18C23 16.8954 23.8954 16 25 16C26.1046 16 27 16.8954 27 18C27 19.1046 26.1046 20 25 20C23.8954 20 23 19.1046 23 18Z" fill="#1B2528"/>
</svg>
